<svg width="366" height="67" xmlns="http://www.w3.org/2000/svg" version="1.0" preserveAspectRatio="xMidYMid meet" zoomAndPan="magnify">
 <defs>
  <g id="svg_1"/>
 </defs>
 <g>
  <title>Layer 1</title>
  <g id="svg_31">
   <path id="svg_2" fill-rule="evenodd" d="m18.08976,11.73726c2.38282,-2.44531 5.09766,-4.91797 8.38672,-5.58203l28.46875,-5.55859c1.08985,-0.30469 2.22656,-0.41797 3.35156,-0.33203c0.9961,0.20703 1.94922,0.57031 2.83204,1.07031l18.85546,9.52344c0.58984,0.2539 1.12891,0.61328 1.59375,1.05859c0.48829,0.60547 0.83984,1.3125 1.03125,2.06641l7.64844,23.16406c0.78125,2.3711 -0.6875,4.85546 -2.10156,6.92187l-10.68359,15.62891c-0.48438,0.84766 -1.15625,1.57032 -1.96485,2.11718c-0.71094,0.34768 -1.48047,0.55859 -2.26953,0.62502c-11.48047,1.69924 -23.00391,3.09377 -34.57422,4.18359c-1.4375,0.21876 -2.90625,0.17971 -4.33203,-0.11718c-1.20703,-0.39064 -2.34766,-0.96875 -3.37891,-1.70702c-12.01171,-7.64846 -24.68359,-16.16799 -30.26562,-29.32424c-0.52344,-1.27344 0.25391,-2.61328 1.01953,-3.73438c4.88281,-7.12109 10.36328,-13.8125 16.38281,-20.00391zm58.25,18.88282c-1.29297,6.4375 -0.01953,13.125 3.54297,18.63671c4.38672,-3.28906 4.9961,-9.73827 3.69531,-15.0664c-1.30078,-5.33203 -4.07813,-10.19922 -5.09766,-15.59375c-0.57422,-2.87891 -3.46875,-4.60156 -6.08203,-5.95313l-12.50781,-6.47656c-0.5625,-0.34375 -1.1914,-0.5625 -1.84765,-0.63672c-1.40236,0 -2.55079,1.12109 -3.41798,2.17969c-3.57813,4.14844 -7.58984,7.89844 -11.96875,11.19531c-0.78906,0.58594 -2.15625,1.04297 -2.55078,0.13672l12.45703,-13.02734c0.19922,-0.15625 0.32031,-0.39453 0.33203,-0.64844c-0.07812,-0.43359 -0.67578,-0.47266 -1.09766,-0.41016l-10.19921,1.51562c-4.52344,0.47266 -8.97266,1.5 -13.2461,3.0625c-9.54687,3.97656 -16,12.86328 -21.59765,21.55859l20.66796,-4.05469c2.55079,-0.51172 5.27736,-1.12109 6.94532,-3.09766c0.625,-0.74219 1.14843,-1.69531 2.09375,-1.95313c0.9414,-0.25391 2.03906,1.07422 1.27343,1.62109c-0.45703,0.42578 -0.71875,1.01953 -0.71875,1.64453c0,0.625 0.26172,1.21875 0.71875,1.64453c0.97657,0.79297 2.16407,1.28516 3.41797,1.41406l28.19922,5.66016c2.3711,0.48438 4.02735,-2.35938 4.44922,-4.74219c0.42188,-2.38281 0.76563,-5.27735 2.94531,-6.375c1.07032,2.39844 0.15234,5.10156 -0.37109,7.71484l-0.03516,0.05078zm-27.15625,13.47656l16.24219,-7.65234c-11.125,-1.16797 -22.125,-3.30078 -32.87891,-6.37109c-2.28906,-0.44141 -4.64843,-0.28906 -6.85937,0.44531l-15.82031,3.82422c-0.60938,0.0625 -1.16797,0.37109 -1.54297,0.85547c-0.19531,0.48828 -0.19531,1.03516 0,1.52734c1.74609,6.88671 7.85156,11.60157 13.5625,15.80859l12.50781,9.1914c0.22656,0.20704 0.51172,0.33205 0.81641,0.35938c0.49609,0 0.8164,-0.5117 1.03125,-0.95703c2.19531,-4.55078 3.19922,-9.90625 6.89843,-13.34766c1.81641,-1.52734 3.85938,-2.76563 6.05469,-3.67187l-0.01172,-0.01173zm0.77735,3.05859c-1.70313,0.85156 -3.27735,1.9375 -4.67969,3.22656c-2.74219,2.75391 -3.68359,6.75391 -4.52344,10.54297c-0.14062,0.625 -0.1914,1.4258 0.35547,1.73438c0.27734,0.1172 0.58594,0.14455 0.87891,0.08594l22.13281,-2.20313c4.5625,-0.44531 9.63672,-1.17578 12.48047,-4.76953c1.19922,-1.51563 1.82422,-3.82422 0.71484,-5.35547c-2.03515,-2.87891 -3.59375,-6.07031 -4.61719,-9.44531c-0.55859,-1.84766 -1.45313,-4.16796 -3.37891,-4.19531c-0.7578,0.05859 -1.48438,0.3125 -2.11328,0.74219l-17.25,9.63671zm0,0" fill="#e928a0"/>
   <g id="svg_3" fill="#e928a0">
    <g id="svg_4">
     <g id="svg_5">
      <path id="svg_6" d="m125.08605,52.75l-7.42187,-10.71875l-8.20313,0l0,10.71875l-8.90625,0l0,-38.5l16.67188,0c3.40625,0 6.36329,0.57031 8.87501,1.70312c2.5078,1.13672 4.44137,2.75 5.79687,4.84375c1.36325,2.09375 2.04688,4.57031 2.04688,7.42188c0,2.86719 -0.6875,5.33594 -2.0625,7.40625c-1.375,2.0625 -3.32814,3.64843 -5.85938,4.75l8.64063,12.375l-9.57813,0zm-0.15625,-24.53125c0,-2.16406 -0.69923,-3.82031 -2.09377,-4.96875c-1.39841,-1.15625 -3.43357,-1.73438 -6.10935,-1.73438l-7.26563,0l0,13.42188l7.26563,0c2.67578,0 4.71095,-0.58594 6.10935,-1.76563c1.39453,-1.17578 2.09377,-2.82813 2.09377,-4.95313zm0,0"/>
     </g>
    </g>
   </g>
   <g id="svg_7" fill="#e928a0">
    <g id="svg_8">
     <g id="svg_9">
      <path id="svg_10" d="m159.61749,53.40625c-3.99219,0 -7.58984,-0.85938 -10.79688,-2.57813c-3.21094,-1.72655 -5.72656,-4.10156 -7.54688,-7.12499c-1.8125,-3.01953 -2.71875,-6.42188 -2.71875,-10.20313c0,-3.78125 0.90625,-7.17969 2.71875,-10.20313c1.82031,-3.01953 4.33594,-5.39062 7.54688,-7.10938c3.20703,-1.72656 6.80469,-2.59375 10.79688,-2.59375c4,0 7.59375,0.86719 10.78125,2.59375c3.19531,1.71875 5.71094,4.08985 7.54688,7.10938c1.83203,3.02344 2.75,6.42188 2.75,10.20313c0,3.78125 -0.91797,7.1836 -2.75,10.20313c-1.83594,3.02343 -4.35156,5.39844 -7.54688,7.12499c-3.1875,1.71875 -6.78125,2.57813 -10.78125,2.57813zm0,-7.59375c2.28125,0 4.33594,-0.51953 6.17188,-1.5625c1.83203,-1.03906 3.26953,-2.49219 4.3125,-4.35938c1.03906,-1.875 1.5625,-4.0039 1.5625,-6.39062c0,-2.38281 -0.52344,-4.50781 -1.5625,-6.375c-1.04297,-1.875 -2.48047,-3.33203 -4.3125,-4.375c-1.83594,-1.03906 -3.89063,-1.5625 -6.17188,-1.5625c-2.27344,0 -4.32422,0.52344 -6.15625,1.5625c-1.83594,1.04297 -3.27345,2.5 -4.3125,4.375c-1.04297,1.86719 -1.5625,3.99219 -1.5625,6.375c0,2.38672 0.51953,4.51562 1.5625,6.39062c1.03905,1.86719 2.47656,3.32031 4.3125,4.35938c1.83203,1.04297 3.88281,1.5625 6.15625,1.5625zm0,0"/>
     </g>
    </g>
   </g>
   <g id="svg_11" fill="#e928a0">
    <g id="svg_12">
     <g id="svg_13">
      <path id="svg_14" d="m200.04974,53.40625c-3.04297,0 -5.98438,-0.41406 -8.82813,-1.23438c-2.84375,-0.8203 -5.12502,-1.89453 -6.84375,-3.21875l3.01563,-6.70313c1.65625,1.21094 3.61719,2.1836 5.89063,2.92188c2.26953,0.73047 4.53905,1.09375 6.81248,1.09375c2.53127,0 4.39845,-0.375 5.60939,-1.125c1.20703,-0.75781 1.8125,-1.75781 1.8125,-3c0,-0.91406 -0.35938,-1.67578 -1.07814,-2.28125c-0.71094,-0.61328 -1.62498,-1.10156 -2.74998,-1.46875c-1.11719,-0.36328 -2.625,-0.76563 -4.53125,-1.20312c-2.92969,-0.69531 -5.32813,-1.39453 -7.20314,-2.09375c-1.86717,-0.69531 -3.46873,-1.8125 -4.81248,-3.34375c-1.33594,-1.53906 -2,-3.59766 -2,-6.17188c0,-2.23828 0.60156,-4.26563 1.81248,-6.07813c1.20705,-1.8125 3.03127,-3.25 5.46877,-4.3125c2.43748,-1.0625 5.41406,-1.59375 8.9375,-1.59375c2.45703,0 4.85938,0.29297 7.20313,0.875c2.35156,0.58594 4.41016,1.42969 6.17188,2.53125l-2.75,6.76563c-3.5625,-2.01953 -7.12111,-3.03125 -10.67188,-3.03125c-2.5,0 -4.34377,0.40625 -5.53125,1.21875c-1.1875,0.80469 -1.78125,1.86719 -1.78125,3.1875c0,1.32422 0.6875,2.30859 2.0625,2.95313c1.37498,0.63672 3.47266,1.26563 6.29688,1.89063c2.92578,0.69922 5.32031,1.39844 7.1875,2.09375c1.875,0.6875 3.47656,1.78906 4.8125,3.29688c1.34375,1.5 2.01563,3.53125 2.01563,6.09375c0,2.21094 -0.61719,4.21875 -1.84375,6.03125c-1.23048,1.8125 -3.07423,3.25 -5.53125,4.3125c-2.44922,1.0625 -5.43359,1.59375 -8.95313,1.59375zm0,0"/>
     </g>
    </g>
   </g>
   <g id="svg_15" fill="#e928a0">
    <g id="svg_16">
     <g id="svg_17">
      <path id="svg_18" d="m252.29343,45.59375l0,7.15625l-29.81247,0l0,-38.5l29.09372,0l0,7.15625l-20.23436,0l0,8.35938l17.87498,0l0,6.92188l-17.87498,0l0,8.90625l20.95311,0zm0,0"/>
     </g>
    </g>
   </g>
   <g id="svg_19" fill="#e928a0">
    <g id="svg_20">
     <g id="svg_21">
      <path id="svg_22" d="m267.36765,21.51563l-12.32813,0l0,-7.26563l33.54688,0l0,7.26563l-12.3125,0l0,31.23437l-8.90625,0l0,-31.23437zm0,0"/>
     </g>
    </g>
   </g>
   <g id="svg_23" fill="#e928a0">
    <g id="svg_24">
     <g id="svg_25">
      <path id="svg_26" d="m301.35516,21.51563l-12.32813,0l0,-7.26563l33.54688,0l0,7.26563l-12.3125,0l0,31.23437l-8.90625,0l0,-31.23437zm0,0"/>
     </g>
    </g>
   </g>
   <g id="svg_27" fill="#e928a0">
    <g id="svg_28">
     <g id="svg_29">
      <path id="svg_30" d="m352.71768,44.5l-17.875,0l-3.40625,8.25l-9.14063,0l17.17188,-38.5l8.79688,0l17.21875,38.5l-9.35938,0l-3.40625,-8.25zm-2.8125,-6.76562l-6.09375,-14.73438l-6.10938,14.73438l12.20313,0zm0,0"/>
     </g>
    </g>
   </g>
  </g>
 </g>
</svg>